<?xml version="1.0" encoding="utf-8"?>
<svg viewBox="0 0 300 300" xmlns="http://www.w3.org/2000/svg">
  <path style="fill: rgb(67, 168, 0);" d="M 50.842 0 H 246.731 A 53.269 53.269 0 0 1 300 53.269 V 248.553 A 51.453 51.453 0 0 1 248.547 300.006 H -0.006 V 50.848 A 50.848 50.848 0 0 1 50.842 0 Z" transform="matrix(1, 0, 0, 1, 2.842170943040401e-14, 1.4210854715202004e-14)"/>
  <g transform="matrix(20.167530059814453, 0, 0, 20.167530059814453, -596.5273526389501, -4404.0860031259945)" style="">
    <g>
      <g>
        <path d="M 41.481 231.6 C 40.787 228.515 37.71 229.436 36.042 230.317 C 25.57 235.847 43.386 241.432 41.482 231.6 L 41.481 231.6 Z" fill="#e5be00"/>
        <path d="M 28.196 225.36 C 31.313 223.268 28.756 223.71 33.159 220.944 C 36.674 218.735 31.805 227.664 36.075 230.284 C 34.649 232.006 33.488 233.792 32.682 235.887 C 26.889 235.672 28.196 225.36 28.196 225.36 Z" fill="#3b5800"/>
        <path d="m33.703 220.67c5.9324-1.664 6.3531 1.7543 7.8279 2.1125 0.99823 0.24247 2.9229 0.61497 2.9229 0.61497s-2.8148 0.82131-2.9165 1.8339c-0.16248 1.6176-0.68835 2.5727-0.36033 4.818 0.0396 0.27056 0.28105 1.0225 0.30377 1.5486-3.6025-3.8128-3.4812-0.7461-6.7079-1.3345-5.5275-0.71361-4.94-7.989-1.0698-9.5936z"/>
        <ellipse cx="38.285" cy="223.75" rx=".97273" ry=".55602" fill="#505050"/>
        <path d="m44.454 223.39-4.4801 0.39167s0.68681 1.3428 1.0011 1.115c0.77546-0.56221 3.479-1.5066 3.479-1.5066z" fill="#505050"/>
        <path d="m40.861 224.35s-0.84827 0.0954-3.7368 0.0372-4.5412 0.44164-3.9597 1.6048c0.5816 1.1632 3.7888 3.479 5.04 2.3878 2.5784-2.2488 2.6566-4.0298 2.6566-4.0298z" fill="#fff"/>
      </g>
    </g>
  </g>
</svg>